<svg xmlns="http://www.w3.org/2000/svg" enable-background="new 0 0 50 50" viewBox="0 0 50 50" id="educational-presentation"><path d="M1.91968,35.49611c0,1.61816,1.31641,2.93457,2.93408,2.93457h19.14648v1.6521l-9.4082,7.11987
		c-0.44043,0.33301-0.52734,0.96045-0.19385,1.40088c0.33301,0.43945,0.95947,0.52734,1.40088,0.19385l8.20117-6.2066v4.70074
		c0,0.55225,0.44775,1,1,1s1-0.44775,1-1v-4.70074l8.20117,6.2066c0.43936,0.33249,1.06662,0.2474,1.40088-0.19385
		c0.3335-0.44043,0.24658-1.06787-0.19385-1.40088l-9.4082-7.11987v-1.6521h19.146c1.61768,0,2.93408-1.31641,2.93408-2.93457
		c0-1.51733-1.16248-2.75488-2.64111-2.90442V6.839c1.47864-0.14954,2.64111-1.38708,2.64111-2.90442
		c0-1.61816-1.31641-2.93457-2.93408-2.93457H4.85376c-1.61768,0-2.93408,1.31641-2.93408,2.93457
		c0,1.51733,1.16248,2.75488,2.64111,2.90442v25.75268C3.08215,32.74122,1.91968,33.97877,1.91968,35.49611z M46.08032,35.49611
		c0,0.51514-0.41895,0.93457-0.93408,0.93457H4.85376c-0.51514,0-0.93408-0.41943-0.93408-0.93457s0.41895-0.93408,0.93408-0.93408
		c12.69263,0,25.84156,0,40.29248,0C45.66138,34.56202,46.08032,34.98097,46.08032,35.49611z M6.56079,6.86867h36.87842v25.69336
		H6.56079V6.86867z M3.91968,3.93458c0-0.51514,0.41895-0.93457,0.93408-0.93457h40.29248
		c0.51514,0,0.93408,0.41943,0.93408,0.93457s-0.41895,0.93408-0.93408,0.93408c-12.69263,0-25.84156,0-40.29248,0
		C4.33862,4.86867,3.91968,4.44972,3.91968,3.93458z"></path><path d="M40.47534,15.16017L25.79565,8.99562c-0.23975-0.10156-0.51025-0.10449-0.75293-0.00879l-12.87598,5.06055l-2.66016,1.1123
		c-0.36523,0.15234-0.60596,0.50586-0.61426,0.90137c-0.00781,0.39551,0.21777,0.75879,0.57617,0.92676l1.33887,0.62482v4.02411
		l-1.73975,1.73975c-0.39063,0.39063-0.39063,1.02344,0,1.41406c0.19531,0.19531,0.45117,0.29297,0.70703,0.29297
		s0.51172-0.09766,0.70703-0.29297l0.4328-0.4328c0.16205,0.33368,0.49707,0.56854,0.89288,0.56854
		c0.396,0,0.7312-0.23499,0.89319-0.56891l0.43298,0.43317c0.39063,0.39063,1.02344,0.39063,1.41406,0
		c0.39063-0.39014,0.39063-1.02344,0-1.41406l-1.74023-1.74066v-3.13867l2.86035,1.06207v8.13708
		c0,0.41602,0.25781,0.78857,0.64697,0.93555c3.35352,1.26611,6.4541,1.88135,9.47852,1.88135
		c3.01416,0,5.95898-0.6416,8.75244-1.90576c0.35742-0.16211,0.5874-0.51855,0.5874-0.91113v-8.1861l5.37988-2.52289
		c0.35791-0.16797,0.58301-0.53076,0.5752-0.92578C41.07983,15.66652,40.8396,15.313,40.47534,15.16017z M33.13306,20.44923v6.59131
		c-4.78271,1.99219-9.74951,1.98389-15.46533-0.04297v-6.55664l7.31641,3.43066c0.13428,0.06299,0.2793,0.09473,0.42432,0.09473
		s0.29004-0.03174,0.42432-0.09473L33.13306,20.44923z M25.40845,21.86183l-8.24194-3.8645l6.75513-0.46948
		c0.55078-0.03809,0.96631-0.51611,0.92822-1.06689s-0.51563-0.96631-1.06689-0.92822L12.72009,16.3014l-0.35901-0.16809
		l13.03467-5.13623l12.22998,5.13574L25.40845,21.86183z"></path></svg>