<svg xmlns="http://www.w3.org/2000/svg" viewBox="0 0 100 100" id="stationary-bike"><path d="M88.5 76.85C91.83 74.39 94 70.45 94 66c0-5.97-3.84-11.15-9.55-12.9l-7.27-2.23 3.29-15.66c7.02-3.25 12.28-9.64 13.96-17.38.39-1.81-.04-3.66-1.2-5.09a6.005 6.005 0 0 0-4.7-2.24h-.26c-2.7 0-4.98 1.9-5.53 4.62-1.04 5.09-5 9.05-10.08 10.11-2.24.46-3.95 2.24-4.47 4.44-.07.13-.12.27-.15.42l-3.56 16.9L33.8 37.6l-2.85-7.1h1.63c3.54 0 6.42-2.88 6.42-6.42 0-3.01-2.14-5.65-5.08-6.29l-16.93-3.62c-2.45-.53-4.97.07-6.92 1.65A8.219 8.219 0 0 0 7 22.24c0 4.56 3.7 8.26 8.26 8.26h1.39l2.82 7.06c-2.02.71-3.95 1.73-5.73 3.05C8.18 44.71 5 51.03 5 57.94c0 7.41 3.76 13.95 9.46 17.84C9.06 76.94 5 81.75 5 87.5c0 1.1.9 2 2 2h86c1.1 0 2-.9 2-2 0-4.63-2.64-8.65-6.5-10.65zM73.48 29.14a16.983 16.983 0 0 0 13.18-13.22c.17-.83.83-1.42 1.61-1.42h.26c.86 0 1.37.47 1.59.75.39.48.54 1.11.4 1.73a21.006 21.006 0 0 1-16.04 16.04c-.62.14-1.26-.01-1.74-.4-.28-.22-.74-.72-.74-1.55 0-.94.62-1.75 1.48-1.93zm-2.63 7.01c.96.6 2.05.92 3.17.92.43 0 .87-.04 1.31-.14.24-.05.49-.13.73-.19L73.34 49.7l-5.02-1.53 2.53-12.02zM15.26 26.5c-2.35 0-4.26-1.91-4.26-4.26 0-1.29.58-2.5 1.58-3.31.77-.62 1.71-.95 2.67-.95.3 0 .6.03.9.1l16.93 3.63A2.43 2.43 0 0 1 35 24.08c0 1.33-1.09 2.42-2.42 2.42H15.26zm13.79 10.02c-1.9-.23-3.8-.2-5.66.08l-2.44-6.1h5.7l2.4 6.02zM9 57.94c0-5.63 2.59-10.77 7.12-14.12 3.08-2.28 6.69-3.46 10.39-3.46 1.73 0 3.47.26 5.19.79l51.58 15.77A9.447 9.447 0 0 1 90 66c0 5.24-4.26 9.5-9.5 9.5H26.56C16.88 75.5 9 67.62 9 57.94zm.25 27.56c.89-3.45 4.03-6 7.75-6h66c3.72 0 6.86 2.55 7.75 6H9.25zM34.8 67.6l2.92 2.44.09.06c.04.03.09.06.14.09.06.04.12.07.18.1.05.03.1.05.14.07a2.631 2.631 0 0 0 .36.1c.12.03.24.04.37.04h5c1.1 0 2-.9 2-2s-.9-2-2-2h-4.28l-2.36-1.97C38.4 62.76 39 60.7 39 58.5c0-6.62-5.38-12-12-12s-12 5.38-12 12 5.38 12 12 12c2.98 0 5.7-1.1 7.8-2.9zM19 58.5c0-4.41 3.59-8 8-8s8 3.59 8 8c0 1.22-.28 2.38-.78 3.42l-5.94-4.96a2.01 2.01 0 0 0-2.82.26c-.7.85-.59 2.11.26 2.82l5.94 4.95A7.91 7.91 0 0 1 27 66.5c-4.41 0-8-3.59-8-8zm33 10c0-1.1.9-2 2-2h2c1.1 0 2 .9 2 2s-.9 2-2 2h-2c-1.1 0-2-.9-2-2zm12 0c0-1.1.9-2 2-2h2c1.1 0 2 .9 2 2s-.9 2-2 2h-2c-1.1 0-2-.9-2-2zm12 0c0-1.1.9-2 2-2h2c1.1 0 2 .9 2 2s-.9 2-2 2h-2c-1.1 0-2-.9-2-2z"></path></svg>