<svg xmlns="http://www.w3.org/2000/svg" enable-background="new 0 0 64 64" viewBox="0 0 64 64" id="hotel"><path d="M12 15h18c1.104 0 2-.896 2-2s-.896-2-2-2H12c-1.104 0-2 .896-2 2S10.896 15 12 15zM12 23h18c1.104 0 2-.896 2-2s-.896-2-2-2H12c-1.104 0-2 .896-2 2S10.896 23 12 23zM12 31h18c1.104 0 2-.896 2-2s-.896-2-2-2H12c-1.104 0-2 .896-2 2S10.896 31 12 31zM30 39c1.104 0 2-.896 2-2s-.896-2-2-2H12c-1.104 0-2 .896-2 2s.896 2 2 2H30zM46 29h6c1.104 0 2-.896 2-2s-.896-2-2-2h-6c-1.104 0-2 .896-2 2S44.896 29 46 29zM46 37h6c1.104 0 2-.896 2-2s-.896-2-2-2h-6c-1.104 0-2 .896-2 2S44.896 37 46 37zM46 45h6c1.104 0 2-.896 2-2s-.896-2-2-2h-6c-1.104 0-2 .896-2 2S44.896 45 46 45z"></path><path d="M60,16H40V5c0-1.104-0.896-2-2-2H4C2.896,3,2,3.896,2,5v52c0,1.104,0.896,2,2,2h56c1.104,0,2-0.896,2-2V18
			C62,16.896,61.104,16,60,16z M6,7h30v11v37h-7v-4c0-4.411-3.589-8-8-8s-8,3.589-8,8v4H6V7z M17,55v-4c0-2.206,1.794-4,4-4
			s4,1.794,4,4v4H17z M58,55H40V20h18V55z"></path></svg>