<svg xmlns="http://www.w3.org/2000/svg" enable-background="new 0 0 64 64" viewBox="0 0 64 64" id="shopping-bag"><path d="M60,15h-8v-2c0-6.065-4.935-11-11-11S30,6.935,30,13v2h-8c-1.104,0-2,0.896-2,2v13H6c-1.049,0-1.92,0.811-1.995,1.857
			l-2,28c-0.04,0.554,0.153,1.099,0.531,1.505S3.445,62,4,62h50c4.411,0,8-3.589,8-8V17C62,15.896,61.104,15,60,15z M34,13
			c0-3.86,3.14-7,7-7s7,3.14,7,7v2H34V13z M7.862,34h22.275l1.714,24H6.148L7.862,34z M58,54c0,2.206-1.794,4-4,4H35.862
			l-1.867-26.143C33.92,30.811,33.049,30,32,30h-8V19h34V54z"></path><path d="M24,38c-1.104,0-2,0.896-2,2v1c0,1.654-1.346,3-3,3s-3-1.346-3-3v-1c0-1.104-0.896-2-2-2s-2,0.896-2,2v1
			c0,3.86,3.14,7,7,7s7-3.14,7-7v-1C26,38.896,25.104,38,24,38z"></path></svg>