<?xml version="1.0" encoding="iso-8859-1"?>
<!-- Uploaded to: SVG Repo, www.svgrepo.com, Generator: SVG Repo Mixer Tools -->
<!DOCTYPE svg PUBLIC "-//W3C//DTD SVG 1.1//EN" "http://www.w3.org/Graphics/SVG/1.1/DTD/svg11.dtd">
<svg fill="#000000" version="1.1" id="Capa_1" xmlns="http://www.w3.org/2000/svg" xmlns:xlink="http://www.w3.org/1999/xlink" 
	 width="800px" height="800px" viewBox="0 0 457.317 457.317"
	 xml:space="preserve">
<g>
	<g>
		<path d="M425.966,257.905c-1.479-10.086-2.754-20.226-3.985-30.027c-6.549-52.065-12.203-97.029-44.756-112.648
			c-0.031-0.015-20.634-9.566-20.634-9.566l-8.997-7.584l-13.812,13.737l11.983,80.112c0.041,0.273-0.028,0.552-0.191,0.775
			l-12.421,17c-0.198,0.271-0.513,0.432-0.85,0.432c-0.336,0-0.65-0.16-0.849-0.432l-12.42-17c-0.163-0.224-0.232-0.502-0.191-0.775
			l11.983-80.11L317.014,98.08l-8.994,7.584c0,0-19.643,8.96-21.568,10.107c-15.168,7.914-22.305,27.414-29.846,48.044
			c-3.367,9.216-8.946,24.473-12.762,27.961c-14.273,4.088-31.125,2.264-31.265,2.248c-8.641-1.006-16.47,5.182-17.479,13.826
			c-1.009,8.644,5.184,16.469,13.826,17.477c0.443,0.053,5.486,0.619,12.82,0.619c8.724,0,20.687-0.803,31.995-4.232
			c14.423-4.373,21.975-19.443,28.69-36.928l0.016,60.261c0,8.57,3.012,16.207,7.869,22.586l0.008,170.701
			c0.001,10.484,8.5,18.982,18.983,18.982c10.484,0,18.982-8.5,18.982-18.984l-0.008-150.486c1.348,0.113,2.691,0.179,4.02,0.179
			c1.33,0,2.673-0.064,4.021-0.179l-0.004,150.488c0,10.482,8.5,18.982,18.981,18.982c10.484,0,18.984-8.5,18.984-18.982
			l0.002-170.701c4.857-6.379,7.868-14.016,7.868-22.586l0.017-66.993c3.748,15.744,6.164,34.9,8.535,53.756
			c1.254,9.962,2.549,20.263,4.074,30.668c1.148,7.837,7.879,13.474,15.572,13.474c0.76,0,1.53-0.056,2.304-0.17
			C421.273,274.52,427.23,266.516,425.966,257.905z"/>
		<path d="M332.305,97.447c23.051,0,40.253-21.479,40.646-57.496C373.199,14.957,361.296,0,332.305,0
			c-28.996,0-40.898,14.957-40.646,39.951C292.048,75.969,309.25,97.447,332.305,97.447z"/>
		<path d="M170.781,343.159l-24.363-13.541c-4.709-2.601-6.998-6.142-6.998-10.819v-11.5c0-1.438,0-4.796,6.953-4.796
			c7.097,0,7.097,3.357,7.097,4.796v17.696c0,1.047,0.849,1.896,1.893,1.896h23.057c1.046,0,1.896-0.849,1.896-1.896v-10.358
			c0-5.556-3.307-10.201-9.824-13.81c-3.99-2.205-8.807-3.703-14.381-4.485c0.006-0.121,0.018-0.242,0.018-0.365v-18.404
			c0-5.229-4.234-9.467-9.468-9.467c-5.225,0-9.466,4.238-9.466,9.467v18.404c0,0.098,0.012,0.188,0.016,0.289
			c-5.822,0.756-10.832,2.278-14.955,4.562c-6.518,3.607-9.822,8.252-9.822,13.809v7.994c0,7.238,3.399,12.787,10.104,16.496
			l24.37,13.545c4.805,2.654,7.145,6.221,7.145,10.902v12.805c0,1.437,0,4.795-7.098,4.795c-7.533,0-7.533-3.358-7.533-4.795
			v-17.697c0-1.043-0.848-1.895-1.896-1.895h-23.201c-1.047,0-1.891,0.852-1.891,1.895v10.355c0,5.512,3.404,10.148,10.126,13.781
			c4.115,2.219,9.021,3.727,14.647,4.516c-0.005,0.119-0.012,0.242-0.012,0.363v18.408c0,5.229,4.241,9.465,9.466,9.465
			c5.233,0,9.468-4.236,9.468-9.465v-18.408c0-0.101-0.008-0.193-0.012-0.289c5.873-0.773,10.983-2.322,15.256-4.65
			c6.318-3.551,9.521-8.17,9.521-13.721v-9.299C180.892,352.512,177.496,346.93,170.781,343.159z"/>
		<path d="M204.724,241.987c-55.055-32.015-125.895-13.271-157.91,41.789c-32.016,55.055-13.271,125.896,41.783,157.91
			c55.059,32.016,125.897,13.271,157.914-41.785C278.528,344.844,259.782,274.006,204.724,241.987z M214.258,344.477
			c0.733,0.427,1.587,0.67,2.496,0.675l20.439,0.063c-0.459,12.862-3.667,25.788-9.861,37.887l-5.751-3.318
			c-1.058-0.611-2.29-0.773-3.473-0.455c-1.179,0.314-2.166,1.074-2.776,2.133c-0.814,1.412-0.813,3.17,0.003,4.584
			c0.394,0.685,0.97,1.258,1.66,1.658l0.014,0.01l5.745,3.316c-6.763,10.475-15.381,19.121-25.174,25.752l-11.159-19.467
			c-1.373-2.4-4.431-3.228-6.826-1.854c-2.394,1.373-3.224,4.431-1.849,6.826l11.252,19.631
			c-11.672,6.146-24.573,9.691-37.734,10.385l-0.001-6.608c-0.002-1.623-0.874-3.142-2.279-3.959
			c-0.693-0.404-1.489-0.615-2.3-0.615c-1.223,0-2.372,0.475-3.236,1.34c-0.864,0.867-1.34,2.015-1.339,3.236l0.002,6.625
			c-12.44-0.605-24.909-3.787-36.604-9.758l11.898-20.463c1.389-2.39,0.579-5.449-1.809-6.837c-2.388-1.389-5.446-0.579-6.835,1.808
			l-11.899,20.465c-10.797-7.094-19.617-16.172-26.26-26.471l5.742-3.316c1.057-0.608,1.814-1.598,2.131-2.777
			c0.316-1.182,0.152-2.415-0.459-3.475c-0.4-0.691-0.973-1.268-1.656-1.666c-1.418-0.822-3.179-0.824-4.597-0.008l-5.726,3.311
			c-6.085-11.926-9.477-25.092-9.914-38.479l22.631,0.067c2.761,0.01,5.007-2.221,5.015-4.981c0.01-2.763-2.22-5.011-4.983-5.017
			l-22.442-0.069c0.903-11.601,4.063-23.177,9.647-34.078l5.754,3.319c1.059,0.611,2.291,0.773,3.472,0.457
			c1.181-0.315,2.167-1.075,2.779-2.135c1.255-2.18,0.513-4.977-1.657-6.238l-5.771-3.329c7.492-11.605,17.265-20.962,28.385-27.822
			l10.164,17.733c0.453,0.789,1.09,1.408,1.822,1.834c1.493,0.869,3.398,0.939,5.004,0.019c2.396-1.373,3.225-4.43,1.852-6.823
			l-10.055-17.539c10.754-5.097,22.433-8.052,34.325-8.675l0.001,6.609c-0.002,0.801,0.209,1.59,0.61,2.284
			c0.399,0.691,0.978,1.271,1.67,1.675c0.694,0.401,1.489,0.616,2.3,0.616c2.521-0.002,4.573-2.055,4.572-4.577l-0.002-6.627
			c12.439,0.604,24.908,3.788,36.604,9.76l-9.687,16.66c-1.389,2.387-0.579,5.446,1.81,6.836c2.386,1.389,5.447,0.578,6.833-1.81
			l9.69-16.66c10.795,7.095,19.617,16.173,26.258,26.472l-5.738,3.315c-1.06,0.611-1.814,1.599-2.131,2.779
			c-0.316,1.18-0.154,2.412,0.456,3.471c0.399,0.693,0.974,1.269,1.659,1.668c1.416,0.822,3.178,0.826,4.593,0.009l5.728-3.31
			c5.505,10.791,8.807,22.601,9.709,34.668l-20.213-0.062c-2.762-0.01-5.008,2.221-5.018,4.984
			C211.761,341.987,212.764,343.605,214.258,344.477z"/>
	</g>
</g>
</svg>