<svg xmlns="http://www.w3.org/2000/svg" enable-background="new 0 0 80 80" viewBox="0 0 48 48"><linearGradient id="a" x1="24" x2="24" y1="7.979" y2="39.898" gradientUnits="userSpaceOnUse"><stop offset="0" stop-color="#fd5615"/><stop offset="1" stop-color="#ffc634"/></linearGradient><path fill="url(#a)" d="M22.53027,12.53027L23.25,11.81055V15c0,0.41406,0.33594,0.75,0.75,0.75s0.75-0.33594,0.75-0.75
		v-3.18945l0.71973,0.71973c0.28969,0.28969,0.77097,0.28958,1.06055,0c0.29297-0.29297,0.29297-0.76758,0-1.06055l-2-2
		c-0.29297-0.29297-0.76758-0.29297-1.06055,0l-2,2c-0.29297,0.29297-0.29297,0.76758,0,1.06055S22.2373,12.82324,22.53027,12.53027
		z"/><linearGradient id="b" x1="24" x2="24" y1="7.979" y2="39.898" gradientUnits="userSpaceOnUse"><stop offset="0" stop-color="#fd5615"/><stop offset="1" stop-color="#ffc634"/></linearGradient><path fill="url(#b)" d="M25.46973,35.46973L24.75,36.18945V33
		c0-0.41406-0.33594-0.75-0.75-0.75s-0.75,0.33594-0.75,0.75v3.18945l-0.71973-0.71973c-0.29297-0.29297-0.76758-0.29297-1.06055,0
		s-0.29297,0.76758,0,1.06055l2,2c0.28974,0.28974,0.77105,0.28949,1.06054,0l2-2c0.29297-0.29297,0.29297-0.76758,0-1.06055
		S25.7627,35.17676,25.46973,35.46973z"/><linearGradient id="c" x1="33.746" x2="33.746" y1="7.979" y2="39.898" gradientUnits="userSpaceOnUse"><stop offset="0" stop-color="#fd5615"/><stop offset="1" stop-color="#ffc634"/></linearGradient><path fill="url(#c)" d="M35.9668,28.49414
		c-0.09375-0.4043-0.50391-0.6582-0.89941-0.56152c-0.40332,0.09277-0.65527,0.49609-0.56152,0.89941l0.23035,0.99695
		l-2.7196-1.69617c-0.35156-0.2207-0.81445-0.1123-1.0332,0.24023c-0.21875,0.35059-0.11133,0.81348,0.24023,1.0332l2.71027,1.69031
		l-0.98566,0.22766c-0.40329,0.09277-0.65524,0.49506-0.56154,0.89933c0.0885,0.38184,0.51403,0.65463,0.89943,0.5616
		c0,0,2.74685-0.63366,2.75584-0.63574c0.39489-0.09109,0.65252-0.50586,0.56155-0.89942L35.9668,28.49414z"/><linearGradient id="d" x1="14.254" x2="14.254" y1="7.979" y2="39.898" gradientUnits="userSpaceOnUse"><stop offset="0" stop-color="#fd5615"/><stop offset="1" stop-color="#ffc634"/></linearGradient><path fill="url(#d)" d="M16.77686,18.59375l-2.71063-1.69031
		l0.98553-0.22766c0.40381-0.09277,0.65527-0.49512,0.5625-0.89941c-0.09326-0.40332-0.49414-0.65918-0.89941-0.56152
		c0,0-2.73639,0.63125-2.75576,0.63572c-0.39863,0.09196-0.65312,0.50353-0.5626,0.89944c0,0,0.63396,2.74601,0.63622,2.75583
		c0.09191,0.39812,0.50409,0.65628,0.89991,0.56155c0.40332-0.09277,0.65479-0.49512,0.56201-0.89941l-0.2301-0.99591
		c0,0,2.71838,1.69513,2.71842,1.69515c0.34933,0.21813,0.81494,0.10968,1.03316-0.24026
		C17.23535,19.27539,17.12842,18.81348,16.77686,18.59375z"/><linearGradient id="e" x1="33.746" x2="33.746" y1="7.979" y2="39.898" gradientUnits="userSpaceOnUse"><stop offset="0" stop-color="#fd5615"/><stop offset="1" stop-color="#ffc634"/></linearGradient><path fill="url(#e)" d="M31.22314,18.59375l2.71063-1.69031
		l-0.98553-0.22766c-0.40381-0.09277-0.65527-0.49512-0.5625-0.89941c0.09326-0.40332,0.49414-0.65918,0.89941-0.56152
		c0,0,2.73639,0.63125,2.75576,0.63572c0.39863,0.09196,0.65313,0.50353,0.5626,0.89944c0,0-0.63396,2.74601-0.63622,2.75583
		c-0.09192,0.39812-0.50409,0.65628-0.89991,0.56155c-0.40332-0.09277-0.65479-0.49512-0.56201-0.89941l0.2301-0.99591
		c0,0-2.71838,1.69513-2.71842,1.69515c-0.34933,0.21813-0.81494,0.10968-1.03316-0.24026
		C30.76465,19.27539,30.87158,18.81348,31.22314,18.59375z"/><linearGradient id="f" x1="14.254" x2="14.254" y1="7.979" y2="39.898" gradientUnits="userSpaceOnUse"><stop offset="0" stop-color="#fd5615"/><stop offset="1" stop-color="#ffc634"/></linearGradient><path fill="url(#f)" d="M15.98291,28.13281l-2.71838,1.69513
		l0.2301-0.99591c0.09277-0.4043-0.15869-0.80664-0.56201-0.89941c-0.40527-0.09668-0.80664,0.1582-0.8999,0.56152
		c0,0-0.63489,2.75004-0.63623,2.75585c-0.09214,0.39909,0.16339,0.80895,0.5625,0.89942c0,0,2.75586,0.63574,2.75593,0.63576
		c0.39643,0.09565,0.80851-0.1657,0.89934-0.56154c0.09277-0.4043-0.15869-0.80664-0.5625-0.89941l-0.98553-0.22766l2.71063-1.69031
		c0.35156-0.21973,0.4585-0.68164,0.23926-1.0332S16.3335,27.91699,15.98291,28.13281z"/><linearGradient id="g" x1="24" x2="24" y1="7.979" y2="39.898" gradientUnits="userSpaceOnUse"><stop offset="0" stop-color="#fd5615"/><stop offset="1" stop-color="#ffc634"/></linearGradient><path fill="url(#g)" d="M24,17.25c-3.72217,0-6.75,3.02832-6.75,6.75
		c0,1.51428,0.50732,2.90894,1.35266,4.03638c0.55646-1.52423,1.7356-2.74908,3.23285-3.36005
		C21.47406,24.21082,21.25,23.63379,21.25,23c0-1.5166,1.2334-2.75,2.75-2.75s2.75,1.2334,2.75,2.75
		c0,0.63379-0.22406,1.21082-0.58551,1.67633c1.49725,0.61096,2.67639,1.83582,3.23285,3.36005
		C30.24268,26.90894,30.75,25.51428,30.75,24C30.75,20.27832,27.72217,17.25,24,17.25z"/><linearGradient id="h" x1="24" x2="24" y1="7.979" y2="39.898" gradientUnits="userSpaceOnUse"><stop offset="0" stop-color="#fd5615"/><stop offset="1" stop-color="#ffc634"/></linearGradient><circle cx="24" cy="23" r="1.25" fill="url(#h)"/><linearGradient id="i" x1="24" x2="24" y1="7.979" y2="39.898" gradientUnits="userSpaceOnUse"><stop offset="0" stop-color="#fd5615"/><stop offset="1" stop-color="#ffc634"/></linearGradient><path fill="url(#i)" d="M24,25.75
		c-2.10059,0-3.83844,1.53546-4.17834,3.54114C20.97223,30.20172,22.42212,30.75,24,30.75s3.02777-0.54828,4.17834-1.45886
		C27.83844,27.28546,26.10059,25.75,24,25.75z"/></svg>